<svg width="25.000000" height="25.000000" viewBox="0 0 25 25" fill="none" xmlns="http://www.w3.org/2000/svg" xmlns:xlink="http://www.w3.org/1999/xlink">
	<desc>
			Created with Pixso.
	</desc>
	<defs>
		<clipPath id="clip20_714">
			<rect id="user 3 1" rx="-0.500000" width="24.000000" height="24.000000" transform="translate(0.500000 0.500000)" fill="white" fill-opacity="0"/>
		</clipPath>
	</defs>
	<rect id="user 3 1" rx="-0.500000" width="24.000000" height="24.000000" transform="translate(0.500000 0.500000)" fill="#C5C5CF" fill-opacity="0"/>
	<g clip-path="url(#clip20_714)">
		<path id="Vector" d="M12.32 12.04C13.97 12.04 15.4 11.44 16.57 10.27C17.75 9.1 18.34 7.67 18.34 6.02C18.34 4.36 17.75 2.93 16.57 1.76C15.4 0.59 13.97 0 12.32 0C10.66 0 9.23 0.59 8.06 1.76C6.89 2.93 6.3 4.36 6.3 6.02C6.3 7.67 6.89 9.1 8.06 10.27C9.23 11.44 10.66 12.04 12.32 12.04Z" fill="#B1B1B1" fill-opacity="1.000000" fill-rule="nonzero"/>
		<path id="Vector" d="M22.85 19.22C22.82 18.73 22.75 18.2 22.65 17.64C22.55 17.07 22.42 16.54 22.26 16.05C22.1 15.55 21.88 15.05 21.61 14.57C21.33 14.07 21 13.64 20.62 13.29C20.24 12.91 19.76 12.62 19.21 12.4C18.66 12.18 18.05 12.07 17.4 12.07C17.15 12.07 16.9 12.18 16.43 12.49C16.13 12.68 15.79 12.9 15.41 13.14C15.08 13.35 14.64 13.55 14.09 13.72C13.55 13.9 13.01 13.99 12.47 13.99C11.94 13.99 11.4 13.9 10.86 13.72C10.31 13.55 9.87 13.35 9.54 13.14C9.16 12.9 8.82 12.68 8.52 12.49C8.05 12.18 7.8 12.07 7.54 12.07C6.89 12.07 6.29 12.18 5.74 12.4C5.19 12.62 4.71 12.91 4.32 13.29C3.95 13.64 3.62 14.07 3.34 14.57C3.07 15.05 2.85 15.55 2.69 16.05C2.53 16.54 2.4 17.07 2.3 17.64C2.2 18.2 2.13 18.73 2.1 19.22C2.06 19.7 2.05 20.19 2.05 20.7C2.05 22 2.46 23.06 3.28 23.84C4.09 24.61 5.16 25 6.46 25L18.49 25C19.79 25 20.86 24.61 21.67 23.84C22.49 23.06 22.9 22 22.9 20.7C22.9 20.19 22.89 19.69 22.85 19.22Z" fill="#B1B1B1" fill-opacity="1.000000" fill-rule="nonzero"/>
	</g>
</svg>
