<svg width="26.000000" height="26.000000" viewBox="0 0 26 26" fill="none" xmlns="http://www.w3.org/2000/svg" xmlns:xlink="http://www.w3.org/1999/xlink">
	<desc>
			Created with Pixso.
	</desc>
	<defs>
		<clipPath id="clip20_676">
			<rect id="credit-card 1" rx="-0.500000" width="25.000000" height="25.000000" transform="translate(0.500000 0.500000)" fill="white" fill-opacity="0"/>
		</clipPath>
	</defs>
	<rect id="credit-card 1" rx="-0.500000" width="25.000000" height="25.000000" transform="translate(0.500000 0.500000)" fill="#C5C5CF" fill-opacity="0"/>
	<g clip-path="url(#clip20_676)">
		<path id="Vector" d="M22.96 7.16L22.96 6.8C22.96 5.17 21.63 3.84 19.99 3.84L2.96 3.84C1.33 3.84 0 5.17 0 6.8L0 7.16L22.96 7.16Z" fill="#B1B1B1" fill-opacity="1.000000" fill-rule="nonzero"/>
		<path id="Vector" d="M13.56 16.7C13.56 15.16 14.05 13.7 14.97 12.49L0 12.49L0 16.63C0 18.26 1.33 19.59 2.96 19.59L14.19 19.59C13.78 18.7 13.56 17.71 13.56 16.7ZM11.48 15.8L8.92 15.8L8.92 14.27L11.48 14.27L11.48 15.8ZM3.41 14.27L7.39 14.27L7.39 15.8L3.41 15.8L3.41 14.27Z" fill="#B1B1B1" fill-opacity="1.000000" fill-rule="nonzero"/>
		<path id="Vector" d="M16.55 10.97C17.71 10.16 19.09 9.72 20.54 9.72C21.38 9.72 22.19 9.86 22.96 10.15L22.96 8.68L0 8.68L0 10.97L16.55 10.97Z" fill="#B1B1B1" fill-opacity="1.000000" fill-rule="nonzero"/>
		<path id="Vector" d="M26 16.7C26 13.68 23.55 11.24 20.54 11.24C17.53 11.24 15.08 13.68 15.08 16.7C15.08 19.71 17.53 22.15 20.54 22.15C23.55 22.15 26 19.71 26 16.7ZM21.27 19.61L21.27 20.23L20.51 20.23L20.51 20.23L20.51 20.23L19.75 20.23L19.75 19.62C19.29 19.46 18.91 19.19 18.55 18.92L19.45 17.69C19.94 18.05 20.19 18.22 20.54 18.22C20.74 18.22 20.89 18.13 20.95 17.98C21.03 17.8 20.92 17.63 20.68 17.53C20.68 17.53 19.59 17.17 19.09 16.65C18.67 16.22 18.53 15.62 18.67 15.04C18.8 14.46 19.19 14 19.75 13.78L19.75 13.16L21.27 13.16L21.27 13.75C21.66 13.86 21.99 14.02 22.18 14.12L21.45 15.46C20.97 15.2 20.53 15.12 20.35 15.18C20.19 15.24 20.16 15.34 20.15 15.39C20.14 15.44 20.13 15.53 20.22 15.64C20.31 15.74 21.26 16.12 21.26 16.12C22.27 16.53 22.75 17.57 22.37 18.54C22.17 19.04 21.77 19.42 21.27 19.61Z" fill="#B1B1B1" fill-opacity="1.000000" fill-rule="nonzero"/>
	</g>
</svg>
