<svg width="25.000000" height="25.000000" viewBox="0 0 25 25" fill="none" xmlns="http://www.w3.org/2000/svg" xmlns:xlink="http://www.w3.org/1999/xlink">
	<desc>
			Created with Pixso.
	</desc>
	<defs>
		<clipPath id="clip20_682">
			<rect id="economic-investment 1" rx="-0.500000" width="24.000000" height="24.000000" transform="translate(0.500000 0.500000)" fill="white" fill-opacity="0"/>
		</clipPath>
	</defs>
	<rect id="economic-investment 1" rx="-0.500000" width="24.000000" height="24.000000" transform="translate(0.500000 0.500000)" fill="#5B73A0" fill-opacity="0"/>
	<g clip-path="url(#clip20_682)">
		<path id="Vector" d="M3.92 10.22L1.13 10.22C0.5 10.22 0 10.73 0 11.36L0 23.86C0 24.49 0.5 25 1.13 25L3.92 25C4.54 25 5.05 24.49 5.05 23.86L5.05 11.36C5.05 10.73 4.54 10.22 3.92 10.22Z" fill="#B1B1B1" fill-opacity="1.000000" fill-rule="nonzero"/>
		<path id="Vector" d="M10.56 13.63L7.78 13.63C7.15 13.63 6.64 14.14 6.64 14.77L6.64 23.86C6.64 24.49 7.15 24.99 7.78 24.99L10.56 24.99C11.19 24.99 11.7 24.49 11.7 23.86L11.7 14.77C11.7 14.14 11.19 13.63 10.56 13.63Z" fill="#B1B1B1" fill-opacity="1.000000" fill-rule="nonzero"/>
		<path id="Vector" d="M17.21 13.63L14.43 13.63C13.8 13.63 13.29 14.14 13.29 14.77L13.29 23.86C13.29 24.49 13.8 24.99 14.43 24.99L17.21 24.99C17.84 24.99 18.35 24.49 18.35 23.86L18.35 14.77C18.35 14.14 17.84 13.63 17.21 13.63Z" fill="#B1B1B1" fill-opacity="1.000000" fill-rule="nonzero"/>
		<path id="Vector" d="M23.86 10.22L21.07 10.22C20.45 10.22 19.94 10.73 19.94 11.36L19.94 23.86C19.94 24.49 20.45 25 21.07 25L23.86 25C24.49 25 25 24.49 25 23.86L25 11.36C25 10.73 24.49 10.22 23.86 10.22Z" fill="#B1B1B1" fill-opacity="1.000000" fill-rule="nonzero"/>
		<path id="Vector" d="M12.83 6.84L12.83 8.89C13.45 8.85 14.1 8.56 14.1 7.87C14.1 7.17 13.38 6.96 12.83 6.84Z" fill="#B1B1B1" fill-opacity="1.000000" fill-rule="nonzero"/>
		<path id="Vector" d="M11.05 4.39C11.05 4.91 11.43 5.21 12.21 5.36L12.21 3.51C11.5 3.53 11.05 3.95 11.05 4.39Z" fill="#B1B1B1" fill-opacity="1.000000" fill-rule="nonzero"/>
		<path id="Vector" d="M12.5 0C9.05 0 6.25 2.8 6.25 6.25C6.25 9.69 9.05 12.49 12.5 12.49C15.94 12.49 18.75 9.69 18.75 6.25C18.75 2.8 15.94 0 12.5 0ZM12.83 9.94L12.83 10.58C12.83 10.76 12.69 10.93 12.51 10.93C12.34 10.93 12.21 10.76 12.21 10.58L12.21 9.94C10.46 9.9 9.59 8.86 9.59 8.04C9.59 7.63 9.84 7.39 10.23 7.39C11.39 7.39 10.49 8.81 12.21 8.89L12.21 6.73C10.67 6.45 9.75 5.78 9.75 4.63C9.75 3.22 10.92 2.5 12.21 2.46L12.21 1.91C12.21 1.73 12.34 1.56 12.51 1.56C12.69 1.56 12.83 1.73 12.83 1.91L12.83 2.46C13.63 2.48 15.29 2.99 15.29 4C15.29 4.4 14.98 4.64 14.63 4.64C13.96 4.64 13.97 3.53 12.83 3.51L12.83 5.48C14.19 5.77 15.4 6.17 15.4 7.76C15.4 9.14 14.37 9.85 12.83 9.94Z" fill="#B1B1B1" fill-opacity="1.000000" fill-rule="nonzero"/>
	</g>
</svg>
