<svg width="25.000000" height="25.000000" viewBox="0 0 25 25" fill="none" xmlns="http://www.w3.org/2000/svg" xmlns:xlink="http://www.w3.org/1999/xlink">
	<desc>
			Created with Pixso.
	</desc>
	<defs>
		<clipPath id="clip20_701">
			<rect id="loan 1" rx="-0.500000" width="24.000000" height="24.000000" transform="translate(0.500000 0.500000)" fill="white" fill-opacity="0"/>
		</clipPath>
	</defs>
	<rect id="loan 1" rx="-0.500000" width="24.000000" height="24.000000" transform="translate(0.500000 0.500000)" fill="#C5C5CF" fill-opacity="0"/>
	<g clip-path="url(#clip20_701)">
		<path id="Vector" d="M14.49 15.33C18.68 15.33 22.1 11.89 22.1 7.66C22.1 3.44 18.68 0 14.49 0C10.29 0 6.88 3.44 6.88 7.66C6.88 11.89 10.29 15.33 14.49 15.33ZM12.04 10.06C12.26 9.72 12.72 9.62 13.06 9.84C13.55 10.17 13.73 10.2 14.39 10.19C15.02 10.19 15.39 9.71 15.46 9.28C15.5 9.06 15.51 8.54 14.87 8.32C14.11 8.05 13.34 7.74 12.8 7.32C12.26 6.9 12.01 6.17 12.16 5.42C12.31 4.6 12.88 3.96 13.64 3.73C13.64 3.73 13.65 3.72 13.66 3.72L13.66 3.44C13.66 3.04 13.99 2.71 14.39 2.71C14.79 2.71 15.12 3.04 15.12 3.44L15.12 3.68C15.62 3.79 15.97 4.02 16.11 4.13C16.43 4.37 16.5 4.83 16.26 5.15C16.01 5.48 15.55 5.54 15.23 5.3C15.08 5.19 14.67 4.95 14.06 5.13C13.71 5.24 13.61 5.59 13.59 5.69C13.56 5.9 13.6 6.09 13.7 6.17C14.08 6.46 14.75 6.72 15.35 6.94C16.48 7.33 17.1 8.37 16.91 9.52C16.81 10.08 16.53 10.61 16.11 10.99C15.82 11.26 15.49 11.44 15.12 11.55L15.12 11.88C15.12 12.29 14.79 12.62 14.39 12.62C13.99 12.62 13.66 12.29 13.66 11.88L13.66 11.62C13.18 11.57 12.79 11.42 12.25 11.07C11.92 10.85 11.82 10.39 12.04 10.06Z" fill="#B1B1B1" fill-opacity="1.000000" fill-rule="nonzero"/>
		<path id="Vector" d="M2.77 17.79L1.1 17.79C0.7 17.79 0.37 18.12 0.37 18.52L0.37 24.26C0.37 24.67 0.7 24.99 1.1 24.99L2.77 24.99L2.77 17.79L2.77 17.79Z" fill="#B1B1B1" fill-opacity="1.000000" fill-rule="nonzero"/>
		<path id="Vector" d="M24.41 17.74C23.03 16.37 20.8 16.37 19.43 17.74L17.24 19.93L16.34 20.83C15.98 21.2 15.48 21.4 14.97 21.4L10.6 21.4C10.2 21.4 9.87 21.1 9.85 20.7C9.83 20.28 10.16 19.93 10.58 19.93L15.02 19.93C15.91 19.93 16.69 19.3 16.84 18.42C16.88 18.22 16.9 18.01 16.9 17.8C16.9 17.39 16.57 17.06 16.16 17.06L13.73 17.06C12.93 17.06 12.17 16.7 11.36 16.32C10.51 15.92 9.64 15.5 8.61 15.44C7.71 15.38 6.81 15.47 5.94 15.73C5 16 4.32 16.83 4.24 17.79C4.24 17.79 4.24 17.79 4.23 17.79L4.23 24.99L16.84 25C17.71 25 18.53 24.66 19.14 24.04L24.41 18.78C24.69 18.49 24.69 18.03 24.41 17.74Z" fill="#B1B1B1" fill-opacity="1.000000" fill-rule="nonzero"/>
	</g>
</svg>
