<svg width="25.000000" height="25.000000" viewBox="0 0 25 25" fill="none" xmlns="http://www.w3.org/2000/svg" xmlns:xlink="http://www.w3.org/1999/xlink">
	<desc>
			Created with Pixso.
	</desc>
	<defs>
		<clipPath id="clip20_717">
			<rect id="econometrics 1" rx="-0.500000" width="24.000000" height="24.000000" transform="translate(0.500000 0.500000)" fill="white" fill-opacity="0"/>
		</clipPath>
	</defs>
	<rect id="econometrics 1" rx="-0.500000" width="24.000000" height="24.000000" transform="translate(0.500000 0.500000)" fill="#C5C5CF" fill-opacity="0"/>
	<g clip-path="url(#clip20_717)">
		<path id="Vector" d="M4.81 16.66C5.06 16.81 5.27 17.01 5.45 17.23L8.7 17.23L8.7 14.08L7.16 13.12C6.81 12.91 6.71 12.45 6.92 12.11C7.13 11.77 7.59 11.66 7.93 11.87L9.43 12.81L10.74 11.99C8.13 8.41 8.73 3.33 12.21 0.46C6.48 -1.46 0.46 2.81 0.44 8.94C0.42 12.19 2.15 15.08 4.81 16.66Z" fill="#B1B1B1" fill-opacity="1.000000" fill-rule="nonzero"/>
		<path id="Vector" d="M5.9 18.7L12.84 18.7L12.84 20.36L5.9 20.36L5.9 18.7Z" fill="#B1B1B1" fill-opacity="1.000000" fill-rule="nonzero"/>
		<path id="Vector" d="M10.17 14.08L10.17 17.23L13.29 17.23C13.45 17.01 13.66 16.83 13.9 16.68C14.56 16.29 15.17 15.81 15.72 15.27C14.19 14.92 12.81 14.16 11.72 13.11C11.68 13.14 11.38 13.32 10.17 14.08Z" fill="#B1B1B1" fill-opacity="1.000000" fill-rule="nonzero"/>
		<path id="Vector" d="M17.57 0C13.73 0 10.59 3.17 10.59 7.03C10.59 10.66 13.38 13.66 16.95 13.98C21.08 14.35 24.55 11.07 24.55 7.03C24.55 3.18 21.42 0 17.57 0ZM18.31 10.2L18.31 10.36C18.31 10.76 17.98 11.09 17.57 11.09C17.17 11.09 16.84 10.76 16.84 10.36L16.84 10.29C16.5 10.23 16.2 10.1 15.81 9.84C15.47 9.62 15.37 9.17 15.59 8.83C15.82 8.49 16.27 8.4 16.61 8.62C16.96 8.85 17.08 8.87 17.57 8.87C18.04 8.86 18.23 8.49 18.26 8.28C18.3 8.08 18.26 7.82 17.9 7.69C17.29 7.48 16.67 7.23 16.22 6.88C15.22 6.1 15.52 4.29 16.84 3.81L16.84 3.71C16.84 3.3 17.17 2.98 17.57 2.98C17.98 2.98 18.31 3.3 18.31 3.71L18.31 3.75C18.67 3.85 18.96 4.03 19.16 4.24C19.44 4.53 19.44 4.99 19.15 5.27C18.86 5.56 18.4 5.55 18.11 5.27C18.07 5.23 17.85 5.04 17.36 5.18C17.16 5.24 17.11 5.45 17.1 5.51C17.08 5.63 17.11 5.72 17.13 5.73C17.4 5.95 17.92 6.15 18.39 6.31C20.32 6.99 20.08 9.56 18.31 10.2Z" fill="#B1B1B1" fill-opacity="1.000000" fill-rule="nonzero"/>
		<path id="Vector" d="M7.08 22.7C7.08 23.97 8.11 25 9.37 25C10.64 25 11.67 23.97 11.67 22.7L11.67 21.82L7.08 21.82L7.08 22.7Z" fill="#B1B1B1" fill-opacity="1.000000" fill-rule="nonzero"/>
	</g>
</svg>
