<svg width="25.000000" height="25.000000" viewBox="0 0 25 25" fill="none" xmlns="http://www.w3.org/2000/svg" xmlns:xlink="http://www.w3.org/1999/xlink">
	<desc>
			Created with Pixso.
	</desc>
	<defs>
		<clipPath id="clip20_655">
			<rect id="service 1" rx="-0.500000" width="24.000000" height="24.000000" transform="translate(0.500000 0.500000)" fill="white" fill-opacity="0"/>
		</clipPath>
	</defs>
	<rect id="service 1" rx="-0.500000" width="24.000000" height="24.000000" transform="translate(0.500000 0.500000)" fill="#C5C5CF" fill-opacity="0"/>
	<g clip-path="url(#clip20_655)">
		<path id="Vector" d="M24.78 1.25L23.74 0.21C23.53 -0.01 23.2 -0.07 22.92 0.06L17.36 2.52C17.14 2.62 16.99 2.82 16.94 3.05C16.9 3.29 16.98 3.53 17.15 3.7L21.29 7.84C21.46 8.01 21.7 8.09 21.94 8.05C22.17 8 22.37 7.85 22.47 7.63L24.93 2.07C25.06 1.79 25 1.46 24.78 1.25Z" fill="#B1B1B1" fill-opacity="1.000000" fill-rule="nonzero"/>
		<path id="Vector" d="M4.73 16.12L0.64 20.21C-0.22 21.07 -0.22 22.46 0.64 23.32L1.67 24.35C2.53 25.21 3.92 25.21 4.78 24.35L8.87 20.26L4.73 16.12ZM4.27 21.77C3.98 22.05 3.52 22.05 3.23 21.77C2.95 21.48 2.95 21.02 3.23 20.73L5.25 18.71C5.54 18.43 6 18.43 6.29 18.71C6.57 19 6.57 19.46 6.29 19.75L4.27 21.77Z" fill="#B1B1B1" fill-opacity="1.000000" fill-rule="nonzero"/>
		<path id="Vector" d="M11.98 17.16L7.83 13.01C7.26 12.44 6.33 12.44 5.76 13.01C5.19 13.58 5.19 14.51 5.76 15.08L9.91 19.23C10.48 19.8 11.41 19.8 11.98 19.23C12.55 18.66 12.55 17.73 11.98 17.16Z" fill="#B1B1B1" fill-opacity="1.000000" fill-rule="nonzero"/>
		<path id="Vector" d="M19.22 7.84L17.15 5.77L11.46 11.46C10.89 10.89 9.96 10.89 9.39 11.46L8.87 11.98L13.01 16.12L13.53 15.6C14.1 15.03 14.1 14.1 13.53 13.53L19.22 7.84Z" fill="#B1B1B1" fill-opacity="1.000000" fill-rule="nonzero"/>
		<path id="Vector" d="M23.71 17.49C22.52 16.3 21.09 16.05 19.45 16.34L16.12 13.01L15.33 13.81C15.59 14.79 15.33 15.87 14.57 16.64L14.05 17.15L16.34 19.45C16.11 20.74 16.13 21.84 16.93 23.03C17.86 24.4 19.48 25.18 21.18 24.95C21.46 24.91 21.7 24.71 21.79 24.44C21.88 24.17 21.81 23.88 21.61 23.68L20.6 22.67L20.6 20.6L22.67 20.6L23.68 21.6C23.88 21.8 24.17 21.87 24.44 21.78C24.71 21.69 24.91 21.45 24.94 21.17C25.12 19.84 24.69 18.47 23.71 17.49Z" fill="#B1B1B1" fill-opacity="1.000000" fill-rule="nonzero"/>
		<path id="Vector" d="M8.64 5.53C8.93 3.9 8.69 2.48 7.49 1.27C6.67 0.45 5.57 0 4.39 0C4.2 0 4 0.01 3.81 0.03C3.53 0.07 3.29 0.27 3.2 0.53C3.11 0.8 3.18 1.1 3.38 1.3L4.39 2.3L4.39 4.39L2.31 4.39L1.3 3.37C1.1 3.17 0.81 3.1 0.54 3.19C0.27 3.28 0.08 3.52 0.04 3.8C-0.19 5.42 0.52 7.07 1.95 8.04C3.15 8.85 4.25 8.87 5.53 8.64L7.84 10.94L8.35 10.42C9.12 9.66 10.2 9.4 11.18 9.66L11.98 8.87L8.64 5.53Z" fill="#B1B1B1" fill-opacity="1.000000" fill-rule="nonzero"/>
	</g>
</svg>
