<svg width="25.000000" height="25.000000" viewBox="0 0 25 25" fill="none" xmlns="http://www.w3.org/2000/svg" xmlns:xlink="http://www.w3.org/1999/xlink">
	<desc>
			Created with Pixso.
	</desc>
	<defs>
		<clipPath id="clip20_674">
			<rect id="settings solid 1" rx="-0.500000" width="24.000000" height="24.000000" transform="translate(0.500000 0.500000)" fill="white" fill-opacity="0"/>
		</clipPath>
	</defs>
	<rect id="settings solid 1" rx="-0.500000" width="24.000000" height="24.000000" transform="translate(0.500000 0.500000)" fill="#C5C5CF" fill-opacity="0"/>
	<g clip-path="url(#clip20_674)">
		<path id="Vector" d="M22.69 9.41L22.16 9.41C21.99 8.87 21.77 8.35 21.51 7.84L21.89 7.47C22.8 6.56 22.78 5.1 21.89 4.21L20.78 3.1C19.89 2.22 18.44 2.19 17.52 3.1L17.15 3.48C16.64 3.22 16.12 3 15.58 2.83L15.58 2.3C15.58 1.03 14.55 0 13.28 0L11.71 0C10.44 0 9.41 1.03 9.41 2.3L9.41 2.83C8.87 3 8.35 3.22 7.84 3.48L7.47 3.1C6.56 2.19 5.1 2.21 4.21 3.1L3.1 4.21C2.22 5.1 2.19 6.56 3.1 7.47L3.48 7.84C3.22 8.35 3 8.87 2.83 9.41L2.3 9.41C1.03 9.41 0 10.44 0 11.71L0 13.28C0 14.55 1.03 15.58 2.3 15.58L2.83 15.58C3 16.12 3.22 16.64 3.48 17.15L3.1 17.52C2.19 18.43 2.21 19.89 3.1 20.78L4.21 21.89C5.1 22.77 6.56 22.8 7.47 21.89L7.84 21.51C8.35 21.77 8.87 21.99 9.41 22.16L9.41 22.69C9.41 23.96 10.44 25 11.71 25L13.28 25C14.55 25 15.58 23.96 15.58 22.69L15.58 22.16C16.12 21.99 16.64 21.77 17.15 21.51L17.52 21.89C18.43 22.8 19.89 22.78 20.78 21.89L21.89 20.78C22.77 19.89 22.8 18.43 21.89 17.52L21.51 17.15C21.77 16.64 21.99 16.12 22.16 15.58L22.69 15.58C23.96 15.58 25 14.55 25 13.28L25 11.71C25 10.44 23.96 9.41 22.69 9.41ZM12.5 17.93C9.5 17.93 7.06 15.49 7.06 12.5C7.06 9.5 9.5 7.06 12.5 7.06C15.49 7.06 17.93 9.5 17.93 12.5C17.93 15.49 15.49 17.93 12.5 17.93Z" fill="#C5C5CF" fill-opacity="1.000000" fill-rule="nonzero"/>
	</g>
</svg>
