<svg width="25.000000" height="25.000000" viewBox="0 0 25 25" fill="none" xmlns="http://www.w3.org/2000/svg" xmlns:xlink="http://www.w3.org/1999/xlink">
	<desc>
			Created with Pixso.
	</desc>
	<defs>
		<clipPath id="clip20_693">
			<rect id="transfer 1" rx="-0.500000" width="24.000000" height="24.000000" transform="translate(0.500000 0.500000)" fill="white" fill-opacity="0"/>
		</clipPath>
	</defs>
	<rect id="transfer 1" rx="-0.500000" width="24.000000" height="24.000000" transform="translate(0.500000 0.500000)" fill="#C5C5CF" fill-opacity="0"/>
	<g clip-path="url(#clip20_693)">
		<path id="Vector" d="M5.2 22.91C5.2 23.46 5.42 23.99 5.81 24.38C6.2 24.77 6.73 24.99 7.29 25L17.7 25C18.26 24.99 18.79 24.77 19.18 24.38C19.57 23.99 19.79 23.46 19.79 22.91L19.79 22L5.2 22L5.2 22.91Z" fill="#B1B1B1" fill-opacity="1.000000" fill-rule="nonzero"/>
		<path id="Vector" d="M19.79 2.08C19.79 1.53 19.57 1 19.18 0.61C18.79 0.22 18.26 0 17.7 0L7.29 0C6.73 0 6.2 0.22 5.81 0.61C5.42 1 5.2 1.53 5.2 2.08L5.2 3.12L19.79 3.12L19.79 2.08Z" fill="#B1B1B1" fill-opacity="1.000000" fill-rule="nonzero"/>
		<path id="Vector" d="M24.7 6.7L21.58 3.44L20.08 4.88L21.38 6.24L19.79 6.24L19.79 8.33L21.5 8.33L20.11 9.66L21.55 11.16L24.67 8.17C24.77 8.07 24.85 7.96 24.91 7.84C24.96 7.71 24.99 7.58 24.99 7.44C25 7.3 24.97 7.17 24.92 7.04C24.87 6.91 24.8 6.79 24.7 6.7Z" fill="#B1B1B1" fill-opacity="1.000000" fill-rule="nonzero"/>
		<path id="Vector" d="M16.66 6.24L19.79 6.24L19.79 4.16L5.2 4.16L5.2 16.66L8.33 16.66L8.33 18.75L5.2 18.75L5.2 20.83L19.79 20.83L19.79 8.33L16.66 8.33L16.66 6.24ZM15.62 10.41L11.97 10.41C11.84 10.41 11.7 10.47 11.61 10.56C11.51 10.66 11.45 10.79 11.45 10.93C11.45 11.07 11.51 11.2 11.61 11.3C11.7 11.4 11.84 11.45 11.97 11.45L13.02 11.45C13.66 11.45 14.28 11.69 14.76 12.12C15.24 12.56 15.54 13.15 15.61 13.8C15.67 14.44 15.5 15.08 15.12 15.6C14.73 16.12 14.17 16.48 13.54 16.61L13.54 17.7L11.45 17.7L11.45 16.66L9.37 16.66L9.37 14.58L13.02 14.58C13.15 14.58 13.29 14.52 13.38 14.43C13.48 14.33 13.54 14.2 13.54 14.06C13.54 13.92 13.48 13.79 13.38 13.69C13.29 13.59 13.15 13.54 13.02 13.54L11.97 13.54C11.33 13.54 10.71 13.3 10.23 12.87C9.75 12.43 9.45 11.84 9.38 11.19C9.32 10.55 9.49 9.91 9.87 9.39C10.26 8.87 10.82 8.51 11.45 8.38L11.45 7.29L13.54 7.29L13.54 8.33L15.62 8.33L15.62 10.41Z" fill="#B1B1B1" fill-opacity="1.000000" fill-rule="nonzero"/>
		<path id="Vector" d="M3.49 16.66L4.88 15.33L3.44 13.83L0.32 16.82C0.22 16.92 0.14 17.03 0.08 17.15C0.03 17.28 0 17.41 0 17.55C-0.01 17.69 0.02 17.82 0.07 17.95C0.12 18.08 0.19 18.2 0.29 18.29L3.41 21.55L4.91 20.11L3.61 18.75L5.2 18.75L5.2 16.66L3.49 16.66Z" fill="#B1B1B1" fill-opacity="1.000000" fill-rule="nonzero"/>
	</g>
</svg>
